<mxfile host="app.diagrams.net" modified="2020-11-11T00:20:54.514Z" agent="5.0 (Windows NT 10.0; Win64; x64) AppleWebKit/537.36 (KHTML, like Gecko) Chrome/86.0.4240.183 Safari/537.36" etag="gcp0iLn2T6SZmcvwL8yO" version="13.9.2" type="github">
  <diagram id="C5RBs43oDa-KdzZeNtuy" name="Page-1">
    <mxGraphModel dx="2062" dy="1158" grid="1" gridSize="10" guides="1" tooltips="1" connect="1" arrows="1" fold="1" page="1" pageScale="1" pageWidth="827" pageHeight="1169" math="0" shadow="0">
      <root>
        <mxCell id="WIyWlLk6GJQsqaUBKTNV-0" />
        <mxCell id="WIyWlLk6GJQsqaUBKTNV-1" parent="WIyWlLk6GJQsqaUBKTNV-0" />
        <mxCell id="3O-Bd3IR3qAcZB0B3nBF-12" value="" style="rounded=1;whiteSpace=wrap;html=1;fillColor=#3399FF;opacity=20;" parent="WIyWlLk6GJQsqaUBKTNV-1" vertex="1">
          <mxGeometry x="50" y="30" width="540" height="800" as="geometry" />
        </mxCell>
        <mxCell id="3O-Bd3IR3qAcZB0B3nBF-13" value="" style="rounded=1;whiteSpace=wrap;html=1;fillColor=#d5e8d4;opacity=20;strokeColor=#82b366;" parent="WIyWlLk6GJQsqaUBKTNV-1" vertex="1">
          <mxGeometry x="110" y="150" width="620" height="550" as="geometry" />
        </mxCell>
        <mxCell id="3O-Bd3IR3qAcZB0B3nBF-14" value="" style="rounded=1;whiteSpace=wrap;html=1;fillColor=#f8cecc;opacity=20;strokeColor=#b85450;" parent="WIyWlLk6GJQsqaUBKTNV-1" vertex="1">
          <mxGeometry x="230" y="280" width="560" height="310" as="geometry" />
        </mxCell>
        <mxCell id="WIyWlLk6GJQsqaUBKTNV-2" value="" style="rounded=0;html=1;jettySize=auto;orthogonalLoop=1;fontSize=11;endArrow=block;endFill=0;endSize=8;strokeWidth=1;shadow=0;labelBackgroundColor=none;edgeStyle=orthogonalEdgeStyle;entryX=0.5;entryY=0;entryDx=0;entryDy=0;" parent="WIyWlLk6GJQsqaUBKTNV-1" source="WIyWlLk6GJQsqaUBKTNV-3" target="3O-Bd3IR3qAcZB0B3nBF-0" edge="1">
          <mxGeometry relative="1" as="geometry">
            <mxPoint x="220" y="160" as="targetPoint" />
          </mxGeometry>
        </mxCell>
        <mxCell id="WIyWlLk6GJQsqaUBKTNV-3" value="CESNI ES-RIS year/edition&lt;br&gt;Contains &lt;b&gt;releases&lt;/b&gt;&amp;nbsp;for each part of the ES-RIS&amp;nbsp;&amp;nbsp;" style="rounded=1;whiteSpace=wrap;html=1;fontSize=12;glass=0;strokeWidth=1;shadow=0;" parent="WIyWlLk6GJQsqaUBKTNV-1" vertex="1">
          <mxGeometry x="120" y="60" width="440" height="70" as="geometry" />
        </mxCell>
        <mxCell id="WIyWlLk6GJQsqaUBKTNV-4" value="Approved" style="rounded=0;html=1;jettySize=auto;orthogonalLoop=1;fontSize=11;endArrow=block;endFill=0;endSize=8;strokeWidth=1;shadow=0;labelBackgroundColor=none;edgeStyle=orthogonalEdgeStyle;entryX=0.5;entryY=0;entryDx=0;entryDy=0;" parent="WIyWlLk6GJQsqaUBKTNV-1" source="WIyWlLk6GJQsqaUBKTNV-6" target="3O-Bd3IR3qAcZB0B3nBF-4" edge="1">
          <mxGeometry y="10" relative="1" as="geometry">
            <mxPoint as="offset" />
            <mxPoint x="280" y="410" as="targetPoint" />
            <Array as="points">
              <mxPoint x="340" y="440" />
            </Array>
          </mxGeometry>
        </mxCell>
        <mxCell id="WIyWlLk6GJQsqaUBKTNV-5" value="Rejected" style="edgeStyle=orthogonalEdgeStyle;rounded=0;html=1;jettySize=auto;orthogonalLoop=1;fontSize=11;endArrow=block;endFill=0;endSize=8;strokeWidth=1;shadow=0;labelBackgroundColor=none;" parent="WIyWlLk6GJQsqaUBKTNV-1" source="WIyWlLk6GJQsqaUBKTNV-6" target="WIyWlLk6GJQsqaUBKTNV-7" edge="1">
          <mxGeometry y="10" relative="1" as="geometry">
            <mxPoint as="offset" />
          </mxGeometry>
        </mxCell>
        <mxCell id="WIyWlLk6GJQsqaUBKTNV-6" value="&lt;b&gt;Change Request #&lt;/b&gt;" style="rhombus;whiteSpace=wrap;html=1;shadow=0;fontFamily=Helvetica;fontSize=12;align=center;strokeWidth=1;spacing=6;spacingTop=-4;" parent="WIyWlLk6GJQsqaUBKTNV-1" vertex="1">
          <mxGeometry x="280" y="280" width="120" height="120" as="geometry" />
        </mxCell>
        <mxCell id="WIyWlLk6GJQsqaUBKTNV-7" value="no change in edition" style="rounded=1;whiteSpace=wrap;html=1;fontSize=12;glass=0;strokeWidth=1;shadow=0;" parent="WIyWlLk6GJQsqaUBKTNV-1" vertex="1">
          <mxGeometry x="480" y="320" width="140" height="40" as="geometry" />
        </mxCell>
        <mxCell id="3O-Bd3IR3qAcZB0B3nBF-0" value="Edition a.x for document such as XSD&lt;br&gt;a = major version (0 = not in force)&lt;br&gt;x = &lt;b&gt;edition&lt;/b&gt;" style="rounded=1;whiteSpace=wrap;html=1;" parent="WIyWlLk6GJQsqaUBKTNV-1" vertex="1">
          <mxGeometry x="160" y="180" width="360" height="60" as="geometry" />
        </mxCell>
        <mxCell id="3O-Bd3IR3qAcZB0B3nBF-1" value="Decision if the new edition is minor or major release&amp;nbsp;&lt;br&gt;Major release : x+1.0&lt;br&gt;Minor release : x.y+1" style="rounded=1;whiteSpace=wrap;html=1;" parent="WIyWlLk6GJQsqaUBKTNV-1" vertex="1">
          <mxGeometry x="160" y="730" width="360" height="60" as="geometry" />
        </mxCell>
        <mxCell id="3O-Bd3IR3qAcZB0B3nBF-2" value="" style="endArrow=none;startArrow=classic;html=1;exitX=0;exitY=0.5;exitDx=0;exitDy=0;entryX=0;entryY=0.5;entryDx=0;entryDy=0;endFill=0;" parent="WIyWlLk6GJQsqaUBKTNV-1" source="WIyWlLk6GJQsqaUBKTNV-3" target="3O-Bd3IR3qAcZB0B3nBF-1" edge="1">
          <mxGeometry width="50" height="50" relative="1" as="geometry">
            <mxPoint x="110" y="930" as="sourcePoint" />
            <mxPoint x="160" y="880" as="targetPoint" />
            <Array as="points">
              <mxPoint x="80" y="95" />
              <mxPoint x="80" y="750" />
              <mxPoint x="80" y="760" />
            </Array>
          </mxGeometry>
        </mxCell>
        <mxCell id="3O-Bd3IR3qAcZB0B3nBF-3" value="" style="endArrow=none;startArrow=block;html=1;entryX=0.5;entryY=1;entryDx=0;entryDy=0;exitX=0.5;exitY=0;exitDx=0;exitDy=0;startFill=0;endFill=0;" parent="WIyWlLk6GJQsqaUBKTNV-1" source="WIyWlLk6GJQsqaUBKTNV-6" target="3O-Bd3IR3qAcZB0B3nBF-0" edge="1">
          <mxGeometry width="50" height="50" relative="1" as="geometry">
            <mxPoint x="390" y="590" as="sourcePoint" />
            <mxPoint x="440" y="540" as="targetPoint" />
          </mxGeometry>
        </mxCell>
        <mxCell id="3O-Bd3IR3qAcZB0B3nBF-8" style="edgeStyle=orthogonalEdgeStyle;rounded=0;orthogonalLoop=1;jettySize=auto;html=1;startArrow=none;startFill=0;endArrow=block;endFill=0;" parent="WIyWlLk6GJQsqaUBKTNV-1" source="3O-Bd3IR3qAcZB0B3nBF-4" edge="1">
          <mxGeometry relative="1" as="geometry">
            <mxPoint x="160" y="210" as="targetPoint" />
            <Array as="points">
              <mxPoint x="140" y="495" />
              <mxPoint x="140" y="210" />
              <mxPoint x="160" y="210" />
            </Array>
          </mxGeometry>
        </mxCell>
        <mxCell id="3O-Bd3IR3qAcZB0B3nBF-10" style="edgeStyle=orthogonalEdgeStyle;rounded=0;orthogonalLoop=1;jettySize=auto;html=1;entryX=0.5;entryY=0;entryDx=0;entryDy=0;startArrow=none;startFill=0;endArrow=block;endFill=0;" parent="WIyWlLk6GJQsqaUBKTNV-1" source="3O-Bd3IR3qAcZB0B3nBF-4" target="3O-Bd3IR3qAcZB0B3nBF-9" edge="1">
          <mxGeometry relative="1" as="geometry" />
        </mxCell>
        <mxCell id="3O-Bd3IR3qAcZB0B3nBF-18" style="edgeStyle=orthogonalEdgeStyle;rounded=0;orthogonalLoop=1;jettySize=auto;html=1;startArrow=none;startFill=0;endArrow=block;endFill=0;exitX=1;exitY=0.25;exitDx=0;exitDy=0;entryX=0;entryY=0.5;entryDx=0;entryDy=0;" parent="WIyWlLk6GJQsqaUBKTNV-1" source="3O-Bd3IR3qAcZB0B3nBF-4" target="3O-Bd3IR3qAcZB0B3nBF-17" edge="1">
          <mxGeometry relative="1" as="geometry" />
        </mxCell>
        <mxCell id="3O-Bd3IR3qAcZB0B3nBF-4" value="update of document&lt;br&gt;&lt;br&gt;in a new version a.x.y&lt;br&gt;y = &lt;b&gt;revision&lt;/b&gt;" style="rounded=1;whiteSpace=wrap;html=1;" parent="WIyWlLk6GJQsqaUBKTNV-1" vertex="1">
          <mxGeometry x="280" y="450" width="120" height="80" as="geometry" />
        </mxCell>
        <mxCell id="3O-Bd3IR3qAcZB0B3nBF-11" style="edgeStyle=orthogonalEdgeStyle;rounded=0;orthogonalLoop=1;jettySize=auto;html=1;entryX=0.5;entryY=0;entryDx=0;entryDy=0;startArrow=none;startFill=0;endArrow=block;endFill=0;" parent="WIyWlLk6GJQsqaUBKTNV-1" source="3O-Bd3IR3qAcZB0B3nBF-9" target="3O-Bd3IR3qAcZB0B3nBF-1" edge="1">
          <mxGeometry relative="1" as="geometry" />
        </mxCell>
        <mxCell id="3O-Bd3IR3qAcZB0B3nBF-9" value="Collect of all revisions a.x.y&lt;br&gt;into submitted edition&lt;br&gt;To CESNI/TI" style="rounded=1;whiteSpace=wrap;html=1;" parent="WIyWlLk6GJQsqaUBKTNV-1" vertex="1">
          <mxGeometry x="260" y="600" width="160" height="80" as="geometry" />
        </mxCell>
        <mxCell id="3O-Bd3IR3qAcZB0B3nBF-21" value="yes" style="edgeStyle=orthogonalEdgeStyle;rounded=0;orthogonalLoop=1;jettySize=auto;html=1;startArrow=none;startFill=0;endArrow=block;endFill=0;" parent="WIyWlLk6GJQsqaUBKTNV-1" source="3O-Bd3IR3qAcZB0B3nBF-17" target="3O-Bd3IR3qAcZB0B3nBF-19" edge="1">
          <mxGeometry relative="1" as="geometry" />
        </mxCell>
        <mxCell id="NVoEJXGhBdcBJc4hoMIb-0" value="no" style="edgeStyle=orthogonalEdgeStyle;rounded=0;orthogonalLoop=1;jettySize=auto;html=1;entryX=0.75;entryY=0;entryDx=0;entryDy=0;" edge="1" parent="WIyWlLk6GJQsqaUBKTNV-1" source="3O-Bd3IR3qAcZB0B3nBF-17" target="3O-Bd3IR3qAcZB0B3nBF-4">
          <mxGeometry relative="1" as="geometry">
            <Array as="points">
              <mxPoint x="485" y="390" />
              <mxPoint x="370" y="390" />
            </Array>
          </mxGeometry>
        </mxCell>
        <mxCell id="3O-Bd3IR3qAcZB0B3nBF-17" value="revision is still &lt;br&gt;on test / trials ?" style="rhombus;whiteSpace=wrap;html=1;rounded=0;" parent="WIyWlLk6GJQsqaUBKTNV-1" vertex="1">
          <mxGeometry x="430" y="420" width="110" height="100" as="geometry" />
        </mxCell>
        <mxCell id="3O-Bd3IR3qAcZB0B3nBF-22" style="edgeStyle=orthogonalEdgeStyle;rounded=0;orthogonalLoop=1;jettySize=auto;html=1;entryX=0.5;entryY=1;entryDx=0;entryDy=0;startArrow=none;startFill=0;endArrow=block;endFill=0;" parent="WIyWlLk6GJQsqaUBKTNV-1" source="3O-Bd3IR3qAcZB0B3nBF-19" target="3O-Bd3IR3qAcZB0B3nBF-17" edge="1">
          <mxGeometry relative="1" as="geometry">
            <Array as="points">
              <mxPoint x="640" y="580" />
              <mxPoint x="485" y="580" />
            </Array>
          </mxGeometry>
        </mxCell>
        <mxCell id="3O-Bd3IR3qAcZB0B3nBF-19" value="update of document&lt;br&gt;&lt;br&gt;in a new a.x.y.z&lt;br&gt;z = &lt;b&gt;patch&lt;/b&gt;" style="rounded=1;whiteSpace=wrap;html=1;" parent="WIyWlLk6GJQsqaUBKTNV-1" vertex="1">
          <mxGeometry x="580" y="430" width="120" height="80" as="geometry" />
        </mxCell>
        <mxCell id="3O-Bd3IR3qAcZB0B3nBF-24" value="&lt;div style=&quot;text-align: left&quot;&gt;&lt;b&gt;Example :&lt;/b&gt;&lt;/div&gt;&lt;div style=&quot;text-align: left&quot;&gt;edition&amp;nbsp;&lt;b&gt;2.4 &lt;/b&gt;for Inland ECDIS&amp;nbsp;&lt;/div&gt;&lt;div style=&quot;text-align: left&quot;&gt;&lt;span&gt;edition&amp;nbsp;&lt;b&gt;1.3&lt;/b&gt; for ERI&lt;/span&gt;&lt;/div&gt;&lt;div style=&quot;text-align: left&quot;&gt;edition&amp;nbsp;&lt;b&gt;4.0&lt;/b&gt; for NtS&amp;nbsp;&lt;/div&gt;&lt;div style=&quot;text-align: left&quot;&gt;edition&amp;nbsp;&lt;b&gt;1.3&lt;/b&gt; for VTT&lt;/div&gt;" style="shape=document;whiteSpace=wrap;html=1;boundedLbl=1;rounded=0;fillColor=#FFFFFF;gradientColor=none;" parent="WIyWlLk6GJQsqaUBKTNV-1" vertex="1">
          <mxGeometry x="600" y="40" width="170" height="130" as="geometry" />
        </mxCell>
      </root>
    </mxGraphModel>
  </diagram>
</mxfile>
